#N canvas 649 336 472 404 10;
#X obj 115 29 tgl 15 0 empty empty empty 17 7 0 10 -262144 -1 -1 1
1;
#X obj 115 94 mpu6050 104;
#X obj 5 357 output~;
#X obj 4 318 +~;
#X obj 4 250 +~;
#X obj 159 245 +~;
#X obj 159 192 osc~ 440;
#X obj 4 197 osc~ 330;
#X obj 25 221 osc~ 330.2;
#X obj 180 215 osc~ 440.33;
#X obj 314 242 +~;
#X obj 315 192 osc~ 587;
#X obj 336 215 osc~ 587.25;
#X obj 5 287 +~;
#X obj 4 151 + 32768;
#X obj 62 152 + 32768;
#X obj 159 146 + 32768;
#X obj 217 147 + 32768;
#X obj 314 146 + 32768;
#X obj 372 147 + 32768;
#X obj 4 174 / 20;
#X obj 62 175 / 20;
#X obj 159 169 / 20;
#X obj 217 170 / 20;
#X obj 314 169 / 20;
#X obj 372 170 / 20;
#X obj 115 58 metro 20;
#X connect 0 0 26 0;
#X connect 1 0 14 0;
#X connect 1 1 16 0;
#X connect 1 2 18 0;
#X connect 1 3 15 0;
#X connect 1 4 17 0;
#X connect 1 5 19 0;
#X connect 3 0 2 0;
#X connect 3 0 2 1;
#X connect 4 0 13 0;
#X connect 5 0 13 1;
#X connect 6 0 5 0;
#X connect 7 0 4 0;
#X connect 8 0 4 1;
#X connect 9 0 5 1;
#X connect 10 0 3 1;
#X connect 11 0 10 0;
#X connect 12 0 10 1;
#X connect 13 0 3 0;
#X connect 14 0 20 0;
#X connect 15 0 21 0;
#X connect 16 0 22 0;
#X connect 17 0 23 0;
#X connect 18 0 24 0;
#X connect 19 0 25 0;
#X connect 20 0 7 0;
#X connect 21 0 8 0;
#X connect 22 0 6 0;
#X connect 23 0 9 0;
#X connect 26 0 1 0;
